<?xml version="1.0" encoding="UTF-8"?>
<!DOCTYPE svg PUBLIC "-//W3C//DTD SVG 1.1//EN" "http://www.w3.org/Graphics/SVG/1.1/DTD/svg11.dtd">
<svg xmlns="http://www.w3.org/2000/svg" version="1.1" width="2400px" height="2456px" style="shape-rendering:geometricPrecision; text-rendering:geometricPrecision; image-rendering:optimizeQuality; fill-rule:evenodd; clip-rule:evenodd" xmlns:xlink="http://www.w3.org/1999/xlink">
<g><path style="opacity:0.998" fill="#eb4334" d="M 1174.5,-0.5 C 1207.83,-0.5 1241.17,-0.5 1274.5,-0.5C 1568.87,12.3917 1824.2,117.558 2040.5,315C 2042.01,315.837 2042.51,317.004 2042,318.5C 1926.99,431.015 1811.82,543.348 1696.5,655.5C 1572.92,542.591 1426.92,482.091 1258.5,474C 1028.92,468.254 836.415,549.087 681,716.5C 611.608,793.887 560.108,882.22 526.5,981.5C 394.167,878.833 261.833,776.167 129.5,673.5C 259.302,421.198 452.302,234.031 708.5,112C 856.52,43.9945 1011.85,6.49451 1174.5,-0.5 Z"/></g>
<g><path style="opacity:0.999" fill="#fabb05" d="M 129.5,673.5 C 261.833,776.167 394.167,878.833 526.5,981.5C 479.909,1122.66 474.742,1265.33 511,1409.5C 516.203,1428.27 521.703,1446.94 527.5,1465.5C 394.833,1567.83 262.167,1670.17 129.5,1772.5C 50.4652,1613.69 7.13188,1445.69 -0.5,1268.5C -0.5,1238.17 -0.5,1207.83 -0.5,1177.5C 7.1323,1000.3 50.4656,832.305 129.5,673.5 Z"/></g>
<g><path style="opacity:0.998" fill="#4285f3" d="M 2034.5,2150.5 C 1905.32,2051.08 1776.32,1951.41 1647.5,1851.5C 1764.79,1767.3 1843.96,1655.63 1885,1516.5C 1890.26,1496.37 1894.43,1476.04 1897.5,1455.5C 1672.5,1454.5 1447.5,1454.17 1222.5,1454.5C 1222.5,1302.83 1222.5,1151.17 1222.5,999.5C 1606.07,999.167 1989.57,999.5 2373,1000.5C 2388.14,1066.65 2396.48,1133.65 2398,1201.5C 2404.81,1378.53 2378.81,1550.53 2320,1717.5C 2259.28,1885.06 2164.11,2029.39 2034.5,2150.5 Z"/></g>
<g><path style="opacity:0.999" fill="#34a853" d="M 527.5,1465.5 C 584.41,1630.89 685.744,1761.72 831.5,1858C 982.255,1952.56 1146.26,1989.22 1323.5,1968C 1441.58,1955.93 1549.58,1917.1 1647.5,1851.5C 1776.32,1951.41 1905.32,2051.08 2034.5,2150.5C 1901.18,2272.86 1746.18,2357.36 1569.5,2404C 1380.8,2452.58 1190.47,2460.25 998.5,2427C 714.297,2370.71 478.13,2233.54 290,2015.5C 227.05,1940.99 173.55,1859.99 129.5,1772.5C 262.167,1670.17 394.833,1567.83 527.5,1465.5 Z"/></g>
</svg>
